<?xml version="1.0" standalone="no"?>
<!DOCTYPE svg PUBLIC "-//W3C//DTD SVG 20010904//EN"
 "http://www.w3.org/TR/2001/REC-SVG-20010904/DTD/svg10.dtd">
<svg version="1.0" xmlns="http://www.w3.org/2000/svg"
 width="1280.000000pt" height="761.000000pt" viewBox="0 0 1280.000000 761.000000"
 preserveAspectRatio="xMidYMid meet">
<metadata>
Created by potrace 1.15, written by Peter Selinger 2001-2017
</metadata>
<g transform="translate(0.000000,761.000000) scale(0.100000,-0.100000)"
fill="#000000" stroke="none">
<path d="M6137 7593 c-2 -4 -242 -447 -532 -983 -290 -536 -529 -977 -531
-980 -7 -13 89 -196 147 -281 73 -106 238 -283 347 -370 297 -239 678 -412
1100 -500 83 -17 354 -59 359 -55 11 8 1082 1999 1078 2005 -2 5 -37 11 -77
15 -242 23 -527 92 -748 181 -448 180 -853 512 -1079 884 -58 96 -57 95 -64
84z"/>
<path d="M7955 5394 c-297 -549 -541 -1001 -543 -1005 -2 -4 23 -13 55 -19
609 -121 1083 -336 1506 -682 121 -99 316 -304 402 -421 39 -52 72 -96 75 -96
3 -1 22 29 42 66 20 38 271 504 557 1038 l522 969 -45 66 c-133 194 -391 437
-646 607 -365 243 -879 426 -1320 468 l-65 7 -540 -998z"/>
<path d="M4278 4188 l-548 -1011 41 -76 c54 -103 156 -237 258 -344 308 -320
712 -542 1222 -673 166 -42 438 -89 450 -77 4 4 110 197 235 428 124 231 322
596 439 810 256 471 445 822 445 828 0 3 -37 10 -82 16 -126 18 -381 77 -509
117 -583 184 -1064 512 -1336 912 -31 45 -59 82 -62 82 -3 -1 -252 -456 -553
-1012z"/>
<path d="M7172 3948 c-16 -29 -222 -408 -457 -843 -236 -434 -475 -875 -531
-979 -57 -104 -103 -191 -101 -192 1 -1 49 -9 107 -19 258 -42 575 -139 828
-252 430 -194 841 -527 1065 -865 40 -60 54 -75 63 -65 10 11 141 255 826
1534 147 276 268 508 268 515 0 19 -107 183 -177 271 -132 168 -372 377 -578
504 -254 158 -539 277 -854 359 -121 31 -382 84 -416 84 -7 0 -27 -24 -43 -52z"/>
</g>
</svg>
